<?xml version="1.0" encoding="UTF-8"?>
<svg width="140px" height="42px" viewBox="0 0 140 42" version="1.1" xmlns="http://www.w3.org/2000/svg" xmlns:xlink="http://www.w3.org/1999/xlink">
    <title>Logo</title>
    <defs>
        <linearGradient x1="5.5365412%" y1="28.6035294%" x2="97.9166407%" y2="72.4082353%" id="linearGradient-1">
            <stop stop-color="#FFD0A8" offset="0%"></stop>
            <stop stop-color="#FF4FC0" offset="99.95%"></stop>
        </linearGradient>
    </defs>
    <g id="Logo" stroke="none" stroke-width="1" fill="none" fill-rule="evenodd">
        <g transform="translate(0.000000, 2.000000)" fill-rule="nonzero">
            <path d="M8.3,34.6381579 C5.6,33.1578947 3.6,30.9868421 2.1,28.2236842 C0.7,25.3618421 0,22.1052632 0,18.3552632 C0,14.6052632 0.7,11.3486842 2.2,8.58552632 C3.6,5.92105263 5.7,3.75 8.3,2.26973684 C11,0.789473684 14.1,0 17.7,0 C21.3,0 24.4,0.789473684 27.1,2.26973684 C29.8,3.75 31.8,5.92105263 33.2,8.68421053 C34.6,11.4473684 35.3,14.7039474 35.3,18.4539474 C35.3,22.2039474 34.6,25.4605263 33.2,28.2236842 C31.8,30.9868421 29.7,33.1578947 27.1,34.6381579 C24.4,36.1184211 21.3,36.9078947 17.7,36.9078947 C14.2,36.8092105 11,36.1184211 8.3,34.6381579 Z M24.9,27.5328947 C26.6,25.4605263 27.5,22.4013158 27.5,18.4539474 C27.5,14.5065789 26.6,11.4473684 24.9,9.375 C23.2,7.30263158 20.8,6.21710526 17.7,6.21710526 C14.6,6.21710526 12.2,7.30263158 10.5,9.375 C8.9,11.4473684 8,14.4078947 8,18.3552632 C8,22.4013158 8.9,25.3618421 10.6,27.5328947 C12.3,29.6052632 14.7,30.6907895 17.8,30.6907895 C20.8,30.6907895 23.2,29.6052632 24.9,27.5328947 Z" id="Shape" fill="#050A3A"></path>
            <polygon id="Path" fill="#050A3A" points="41.4 36.8092105 41.4 0 49.2 0 49.2 36.8092105"></polygon>
            <path d="M79.7,10.4605263 L79.7,36.8092105 L72.6,36.8092105 L72.6,32.6644737 C71.2,34.0460526 70.6,35.0328947 69.2,35.7236842 C67.9,36.4144737 66.3,36.8092105 64.6,36.8092105 C61.4,36.8092105 58.9,35.9210526 57.3,34.1447368 C55.7,32.3684211 54.8,29.7039474 54.8,26.0526316 L54.8,10.4605263 L62.6,10.4605263 L62.6,26.1513158 C62.6,29.2105263 63.9,30.7894737 66.6,30.7894737 C68.2,30.7894737 69.4,30.2960526 70.4,29.2105263 C71.4,28.125 71.8,26.7434211 71.8,24.9671053 L71.8,10.4605263 L79.7,10.4605263 Z" id="Path" fill="#050A3A"></path>
            <path d="M124.4,13.2236842 C125.8,15 126.6,17.6644737 126.6,21.3157895 L126.6,36.8092105 L118.8,36.8092105 L118.8,21.6118421 C118.8,19.8355263 118.6,18.5526316 118,17.7631579 C117.4,16.9736842 116.5,16.5789474 115.2,16.5789474 C113.6,16.5789474 112.4,17.0723684 111.6,18.1578947 C110.7,19.2434211 110.3,20.7236842 110.3,22.6973684 L110.3,36.8092105 L102.5,36.8092105 L102.5,21.6118421 C102.5,19.8355263 102.2,18.5526316 101.6,17.7631579 C101,16.9736842 100.1,16.5789474 98.8,16.5789474 C97.2,16.5789474 96.1,17.0723684 95.2,18.1578947 C94.3,19.2434211 94,20.7236842 94,22.6973684 L94,36.8092105 L86.2,36.8092105 L86.2,18.5526316 C86.2,15.7894737 86.1,13.7171053 85.8,10.8552632 L93.1,10.8552632 L93.6,14.9013158 C94.4,13.4210526 95.5,12.4342105 96.9,11.6447368 C98.3,10.8552632 99.9,10.5592105 101.8,10.5592105 C105.6,10.5592105 108.2,12.1381579 109.5,15.2960526 C110.4,13.8157895 111.5,12.7302632 113,11.8421053 C114.5,10.9539474 116.2,10.5592105 118,10.5592105 C120.7,10.5592105 122.9,11.4473684 124.4,13.2236842 Z" id="Path" fill="#050A3A"></path>
            <polygon id="Path" fill="url(#linearGradient-1)" points="132.2 28.4210526 140 28.4210526 140 36.8092105 132.2 36.8092105"></polygon>
        </g>
    </g>
</svg>