<?xml version="1.0" encoding="UTF-8"?>
<svg width="140px" height="44px" viewBox="0 0 140 44" version="1.1" xmlns="http://www.w3.org/2000/svg" xmlns:xlink="http://www.w3.org/1999/xlink">
    <title>Logo</title>
    <g id="Logo" stroke="none" stroke-width="1" fill="none" fill-rule="evenodd">
        <g>
            <path d="M9.03320312,30.2932238 C9.10927258,30.2932238 9.14730674,30.3435547 9.14730674,30.4442181 L9.14730674,30.8972009 C9.14730674,30.9978642 9.10927258,31.0481951 9.03320312,31.0481951 L0.152138158,31.0481951 C0.0507122122,31.0481951 0,30.9978642 0,30.8972009 L0,30.4442181 C0,30.3435547 0.0507122122,30.2932238 0.152138158,30.2932238 C2.23137005,30.2932238 3.35971677,29.4061414 3.53721217,27.6319499 C3.58792514,27.1160503 3.64180687,26.257279 3.69885896,25.0556103 C3.75591106,23.8539417 3.92389526,21.2681908 4.20281661,17.2982801 C4.48173796,13.3283695 4.62119655,10.1166278 4.62119655,7.6629588 L4.62119655,6.96461033 C4.62119655,6.46129361 4.33277084,6.03977218 3.75591077,5.70003339 C3.17905071,5.3602946 2.75750544,5.19042776 2.49126234,5.19042776 C2.22501923,5.19042776 2.09189967,5.14009684 2.09189967,5.03943349 L2.09189967,4.58645071 C2.09189967,4.48578736 2.14261188,4.43545645 2.24403783,4.43545645 L7.74002878,4.43545645 C7.9809154,4.4732052 8.17742523,4.61161522 8.32956414,4.85069067 L17.2486637,24.5743161 C17.3120549,24.6623966 17.3627671,24.7378929 17.4008018,24.8008075 C17.4388365,24.8637221 17.5339219,24.8920333 17.6860609,24.8857418 C17.8381998,24.8794503 17.9523023,24.7693515 18.0283717,24.5554419 L26.8523849,5.19042776 C27.118628,4.68711103 27.359511,4.43545645 27.5750411,4.43545645 L33.1090666,4.43545645 C33.2104926,4.43545645 33.2612048,4.48578736 33.2612048,4.58645071 L33.2612048,5.03943349 C33.2612048,5.14009684 33.2295096,5.19042776 33.1661184,5.19042776 C32.7857711,5.19042776 32.3166832,5.31625505 31.7588405,5.56791341 C30.9093982,5.94540095 30.4846834,6.50533241 30.4846834,7.24772457 L31.6257196,28.103807 C31.6510761,28.7581187 31.9933835,29.2865934 32.6526521,29.6892468 C33.3119208,30.0919001 34.1740284,30.2932238 35.2390008,30.2932238 C35.3404268,30.2932238 35.391139,30.3435547 35.391139,30.4442181 L35.391139,30.8972009 C35.391139,30.9978642 35.3404268,31.0481951 35.2390008,31.0481951 L24.4371916,31.0481951 C24.3357657,31.0481951 24.2850535,30.9978642 24.2850535,30.8972009 L24.2850535,30.4442181 C24.2850535,30.3435547 24.3357657,30.2932238 24.4371916,30.2932238 C26.7065971,30.2932238 27.8412829,29.7458751 27.8412829,28.6511612 L26.8333676,10.6262212 C26.8206894,10.500392 26.7858247,10.4374784 26.7287726,10.4374784 C26.6717205,10.4374784 26.6241778,10.4941006 26.5861431,10.6073469 L17.13456,30.9160751 C17.0838471,31.0041556 16.9380495,31.0481951 16.6971628,31.0481951 C16.4562762,31.0481951 16.3168176,30.9978642 16.2787829,30.8972009 L6.96032072,10.5507241 C6.88425126,10.3745632 6.81135246,10.2864841 6.74162212,10.2864841 C6.67189178,10.2864841 6.63702714,10.4248941 6.63702714,10.7017183 C6.63702714,11.2805325 6.4848905,14.0109848 6.18061266,18.893157 C5.87633483,23.7753292 5.72419819,26.8203497 5.72419819,28.0283099 L5.72419819,28.8021555 C5.87633711,29.5193818 6.59264711,29.9849428 7.87314967,30.1988524 C8.24081872,30.261767 8.62749934,30.2932238 9.03320312,30.2932238 Z M57.13456,14.0613406 C57.2740207,14.0990894 57.34375,14.1871685 57.34375,14.3255806 C57.34375,14.4639927 57.3310719,14.5552175 57.3057155,14.5992577 C57.280359,14.6432979 57.2201382,14.6810461 57.1250514,14.7125034 C57.0299646,14.7439607 56.896845,14.7722718 56.7256887,14.7974377 C56.5545325,14.8226035 56.2851238,14.8697887 55.9174548,14.9389948 C55.5497857,15.0082008 55.2201563,15.2630011 54.9285567,15.7034032 C54.6369571,16.1438054 54.3263448,16.7540678 53.9967105,17.5342087 L45.0585938,39.5227481 L43.8224712,42.1273991 C43.5055151,42.7942937 42.8399174,43.1277361 41.8256579,43.1277361 C41.3819194,43.1277361 41.0269339,42.9830347 40.7606908,42.6936276 C40.4944477,42.4042205 40.3613281,42.0613411 40.3613281,41.6649792 C40.3613281,41.2686172 40.459583,40.9792145 40.6560958,40.7967622 C40.8526086,40.6143098 41.083983,40.4664628 41.3502262,40.3532165 C41.6164693,40.2399702 41.8922169,40.1361627 42.1774774,40.0417908 C42.4627379,39.947419 42.7828587,39.7335126 43.1378495,39.4000652 C43.4928403,39.0666179 43.7020282,38.818109 43.7654194,38.6545311 C45.8953643,33.9233539 46.9603207,31.4508476 46.9603207,31.2369379 C46.9603207,31.0230283 46.8335402,30.758791 46.5799753,30.4442181 L40.3042763,17.4398373 C39.8351813,16.1689625 39.0301249,15.3510851 37.8890831,14.9861805 C37.8003354,14.9610147 37.6925719,14.9421406 37.5657895,14.9295577 C37.0333033,14.879226 36.7670641,14.7219419 36.7670641,14.4577006 C36.7670641,14.1934593 36.9192008,14.0613406 37.2234786,14.0613406 L45.6861637,14.0613406 C45.7875896,14.0613406 45.8383018,14.1588568 45.8383018,14.353892 C45.8383018,14.5489273 45.7495554,14.6810459 45.57206,14.750252 C45.3945646,14.819458 45.001545,14.8540605 44.3929893,14.8540605 C43.4167646,14.8540605 42.9286595,15.2315424 42.9286595,15.9865175 L43.099815,16.4395003 L48.0252878,26.9147272 C48.2788527,27.556456 48.5324138,27.5375819 48.7859786,26.8581043 C48.8113351,26.7951898 48.9698108,26.3862511 49.2614104,25.631276 C50.9856514,21.2901692 51.952353,18.7799147 52.161544,18.1004372 C52.370735,17.4209596 52.4753289,16.911359 52.4753289,16.5716203 C52.4753289,16.2318815 52.2946667,15.8732737 51.9333368,15.4957861 C51.5720068,15.1182986 51.0775628,14.9295577 50.4499897,14.9295577 C49.8224167,14.9295577 49.5086349,14.7471081 49.5086349,14.3822035 C49.5086349,14.1682938 49.6480935,14.0613406 49.9270148,14.0613406 L57.13456,14.0613406 Z M64.7985197,22.0074137 C64.6463808,22.0074137 64.5703125,22.3156906 64.5703125,22.9322535 L64.5703125,28.1793041 C64.5703125,29.4124301 65.2549274,30.1296457 66.6241776,30.3309724 C67.2200551,30.4064699 67.5179893,30.5448799 67.5179893,30.7462066 C67.5179893,30.9475333 67.454599,31.0481951 67.3278166,31.0481951 L58.8461143,31.0481951 C58.7193319,31.0230293 58.6559416,30.9349502 58.6559416,30.7839552 C58.6559416,30.5574626 58.9538759,30.4064699 59.5497533,30.3309724 C60.9190036,30.1296457 61.6036184,29.4124301 61.6036184,28.1793041 L61.6036184,4.64307356 C61.6036184,4.114591 61.3120232,3.74969185 60.728824,3.54836516 C60.4752591,3.46028473 60.202681,3.38793404 59.9110814,3.3313109 C59.6194818,3.27468777 59.3881074,3.22121117 59.2169511,3.1708795 C59.0457948,3.12054783 58.9380313,3.07336259 58.8936575,3.02932238 C58.8492836,2.98528217 58.827097,2.8909117 58.827097,2.74620814 C58.827097,2.60150458 58.9221824,2.47882297 59.1123561,2.37815963 L63.9617599,0.113245696 C64.1138988,0.037748188 64.2089842,0 64.2470189,0 C64.462549,0 64.5703125,0.150992752 64.5703125,0.452982786 L64.5703125,19.289517 C64.6717384,19.6544216 64.804858,19.868328 64.9696752,19.9312426 C65.1344923,19.9941572 65.3119851,20.025614 65.5021587,20.025614 C65.8698278,20.025614 66.4752048,19.7393569 67.318308,19.1668341 C68.1614112,18.5943114 68.9252638,17.9525922 69.609889,17.2416573 C70.2945141,16.5307224 70.6368215,16.039996 70.6368215,15.7694632 C70.6368215,15.4989305 70.51638,15.3290636 70.2754934,15.2598576 C70.0346068,15.1906516 69.7651982,15.1403206 69.4672595,15.1088633 C69.1693207,15.077406 68.8999121,15.0270751 68.6590255,14.9578691 C68.4181389,14.888663 68.2976974,14.7219419 68.2976974,14.4577006 C68.2976974,14.1934593 68.5575975,14.0613406 69.0774054,14.0613406 L76.3229852,14.0613406 C76.7667237,14.0613406 76.9885896,14.206042 76.9885896,14.4954491 C76.9885896,14.6464442 76.842792,14.7659801 76.5511924,14.8540605 C76.2595928,14.9421409 75.6954195,15.0774053 74.8586554,15.2598576 C74.0218914,15.4423099 73.3562936,15.728567 72.8618421,16.1186375 L67.4038857,20.3464768 C67.4038857,20.5100547 67.5243272,20.7113784 67.7652138,20.9504538 L75.5813117,29.1230183 C76.0884414,29.6389179 76.6082416,29.9755059 77.1407278,30.1327924 C77.673214,30.2900789 78.0281995,30.3938864 78.2056949,30.4442181 C78.3831903,30.4945497 78.4719367,30.5826288 78.4719367,30.708458 C78.4719367,30.9349506 78.3705123,31.0481951 78.1676604,31.0481951 L69.8190789,31.0481951 C69.6922965,31.0481951 69.6289063,30.9726987 69.6289063,30.8217037 C69.6289063,30.5952112 69.7873819,30.4505098 70.104338,30.3875952 C71.0552062,30.2114344 71.5306332,29.8905748 71.5306332,29.4250068 C71.5306332,29.2865947 71.4355478,29.1041451 71.2453742,28.8776526 C71.0552005,28.6511601 70.8777078,28.4309623 70.7128906,28.2170527 L64.8365543,22.0451622 C64.8365543,22.0325793 64.8302152,22.0199966 64.817537,22.0074137 L64.7985197,22.0074137 Z M83.0550987,21.1014481 C82.8395685,21.1014481 82.7318051,21.5607177 82.7318051,22.4792708 C82.7318051,24.4296231 83.3149955,26.0653779 84.4813939,27.3865843 C85.6477923,28.7077907 87.0962599,29.368384 88.82684,29.368384 C90.5574202,29.368384 92.2214147,28.6260029 93.8188734,27.1412186 C93.8442298,27.1160528 93.875925,27.10347 93.9139597,27.10347 L94.0090461,27.10347 C94.0851155,27.10347 94.1580143,27.163238 94.2277447,27.2827757 C94.297475,27.4023134 94.3640348,27.4809555 94.427426,27.5187042 C92.9567498,29.2928957 91.2261955,30.5197118 89.2357113,31.1991894 C88.5510862,31.4382648 87.777725,31.5578008 86.9156044,31.5578008 C86.0534839,31.5578008 85.1786982,31.3218746 84.2912212,30.8500151 C83.4037442,30.3781557 82.643061,29.7584563 82.0091488,28.9908983 C80.6652551,27.3928677 79.9933183,25.4016508 79.9933183,23.0171878 C79.9933183,20.6327248 80.7254758,18.4590583 82.1898129,16.4961231 C83.65415,14.5331879 85.6667909,13.551735 88.2277961,13.551735 C90.0661413,13.551735 91.5684906,14.3664667 92.734889,15.9959546 C93.9012874,17.6254425 94.4844778,19.056728 94.4844778,20.289854 C94.4844778,20.8309194 94.3513582,21.1014481 94.0851151,21.1014481 L83.0550987,21.1014481 Z M82.2116571,19.289517 C82.2116571,19.5285924 82.3257595,19.6481283 82.5539679,19.6481283 L89.7234786,19.6481283 C90.0531129,19.6481283 90.2179276,19.453096 90.2179276,19.0630256 C90.2179276,18.1570555 89.8090604,17.2290792 88.9913137,16.2790689 C88.173567,15.3290586 87.2765948,14.8540605 86.3003701,14.8540605 C85.3495018,14.8540605 84.4842247,15.2818733 83.7045127,16.1375117 C82.9248008,16.9931502 82.4271872,17.9683117 82.2116571,19.0630256 L82.2116571,19.289517 Z M107.136616,17.5153344 C106.984477,17.4901686 106.762611,17.4083808 106.471012,17.2699687 C105.418717,16.7918178 104.594644,16.552746 103.998766,16.552746 C103.402889,16.552746 102.778495,16.9207908 102.125565,17.6568915 C101.472636,18.3929922 101.146176,19.0567312 101.146176,19.6481283 L101.146176,28.1793041 C101.146176,29.123023 101.697671,29.7521595 102.800678,30.0667324 C103.282452,30.1925616 103.732523,30.2837864 104.150905,30.3404095 C104.569287,30.3970326 104.838695,30.4505092 104.959139,30.5008409 C105.079582,30.5511726 105.139803,30.6486887 105.139803,30.7933923 C105.139803,30.9380959 105.076412,31.0230293 104.94963,31.0481951 L95.4219778,31.0481951 C95.2951954,31.0230293 95.2318051,30.9349502 95.2318051,30.7839552 C95.2318051,30.5574626 95.5297393,30.4064699 96.1256168,30.3309724 C97.494867,30.1296457 98.1794819,29.4124301 98.1794819,28.1793041 L98.1794819,18.1948086 C98.1794819,17.666326 97.8878867,17.3014269 97.3046875,17.1001002 C97.0511226,17.0120197 96.7785445,16.939669 96.4869449,16.8830459 C96.1953453,16.8264228 95.9639708,16.7729462 95.7928146,16.7226145 C95.6216583,16.6722828 95.5138948,16.6250976 95.469521,16.5810574 C95.4251471,16.5370172 95.4029605,16.4426467 95.4029605,16.2979432 C95.4029605,16.1532396 95.4980459,16.030558 95.6882196,15.9298946 L100.537623,13.6649807 C100.689762,13.5894832 100.784848,13.551735 100.822882,13.551735 C101.038413,13.551735 101.146176,13.7027278 101.146176,14.0047178 L101.146176,17.0623516 C101.146176,17.2133466 101.18421,17.288843 101.26028,17.288843 C101.361706,17.288843 101.621606,16.9931489 102.039988,16.4017517 C103.244421,14.7282236 104.239648,13.8914721 105.025699,13.8914721 C105.469438,13.8914721 106.150883,14.0676303 107.070056,14.419952 C107.989228,14.7722737 108.448808,15.0679679 108.448808,15.3070433 C108.448808,15.5964504 108.30301,16.0368459 108.01141,16.6282431 C107.719811,17.2196402 107.428216,17.5153344 107.136616,17.5153344 Z M130.446135,14.0613406 C130.585596,14.0990894 130.655325,14.1871685 130.655325,14.3255806 C130.655325,14.4639927 130.642647,14.5552175 130.61729,14.5992577 C130.591934,14.6432979 130.531713,14.6810461 130.436626,14.7125034 C130.341539,14.7439607 130.20842,14.7722718 130.037264,14.7974377 C129.866107,14.8226035 129.596699,14.8697887 129.22903,14.9389948 C128.861361,15.0082008 128.531731,15.2630011 128.240132,15.7034032 C127.948532,16.1438054 127.63792,16.7540678 127.308285,17.5342087 L118.370169,39.5227481 L117.134046,42.1273991 C116.81709,42.7942937 116.151492,43.1277361 115.137233,43.1277361 C114.693494,43.1277361 114.338509,42.9830347 114.072266,42.6936276 C113.806023,42.4042205 113.672903,42.0613411 113.672903,41.6649792 C113.672903,41.2686172 113.771158,40.9792145 113.967671,40.7967622 C114.164183,40.6143098 114.395558,40.4664628 114.661801,40.3532165 C114.928044,40.2399702 115.203792,40.1361627 115.489052,40.0417908 C115.774313,39.947419 116.094434,39.7335126 116.449424,39.4000652 C116.804415,39.0666179 117.013603,38.818109 117.076994,38.6545311 C119.206939,33.9233539 120.271896,31.4508476 120.271896,31.2369379 C120.271896,31.0230283 120.145115,30.758791 119.89155,30.4442181 L113.615851,17.4398373 C113.146756,16.1689625 112.3417,15.3510851 111.200658,14.9861805 C111.11191,14.9610147 111.004147,14.9421406 110.877364,14.9295577 C110.344878,14.879226 110.078639,14.7219419 110.078639,14.4577006 C110.078639,14.1934593 110.230776,14.0613406 110.535053,14.0613406 L118.997738,14.0613406 C119.099164,14.0613406 119.149877,14.1588568 119.149877,14.353892 C119.149877,14.5489273 119.06113,14.6810459 118.883635,14.750252 C118.706139,14.819458 118.31312,14.8540605 117.704564,14.8540605 C116.728339,14.8540605 116.240234,15.2315424 116.240234,15.9865175 L116.41139,16.4395003 L121.336863,26.9147272 C121.590428,27.556456 121.843989,27.5375819 122.097553,26.8581043 C122.12291,26.7951898 122.281386,26.3862511 122.572985,25.631276 C124.297226,21.2901692 125.263928,18.7799147 125.473119,18.1004372 C125.68231,17.4209596 125.786904,16.911359 125.786904,16.5716203 C125.786904,16.2318815 125.606242,15.8732737 125.244912,15.4957861 C124.883582,15.1182986 124.389138,14.9295577 123.761565,14.9295577 C123.133992,14.9295577 122.82021,14.7471081 122.82021,14.3822035 C122.82021,14.1682938 122.959668,14.0613406 123.23859,14.0613406 L130.446135,14.0613406 Z" id="Mykery" fill="#262626" fill-rule="nonzero"></path>
            <ellipse id="Oval" stroke="#262626" cx="135.82134" cy="27.3916854" rx="3.18421053" ry="3.1565097"></ellipse>
        </g>
    </g>
</svg>